<?xml version="1.0" encoding="utf-8"?>
<!-- Generator: Adobe Illustrator 17.0.0, SVG Export Plug-In . SVG Version: 6.00 Build 0)  -->
<!DOCTYPE svg PUBLIC "-//W3C//DTD SVG 1.1//EN" "http://www.w3.org/Graphics/SVG/1.1/DTD/svg11.dtd">
<svg version="1.1" id="Layer_1" xmlns="http://www.w3.org/2000/svg" xmlns:xlink="http://www.w3.org/1999/xlink" x="0px" y="0px"
	 width="153.613px" height="49.228px" viewBox="0 0 153.613 49.228" enable-background="new 0 0 153.613 49.228"
	 xml:space="preserve">
<path fill="#EE4D97" d="M108.328,14.263l1.894-4.811h-9.343l-5.554,17.651h-0.104L89.409,9.452H79.336l1.318,3.327l-0.097,0.042
	c-2.36-2.841-6.278-3.992-10.565-3.992c-3.998,0-6.104,0.496-9.606,1.473c0,0-2.088,6.293-2.185,6.564
	c-0.104,0.301,0.197,0.616,0.505,0.468c2.405-1.149,5.42-2.273,9.259-2.273c3.375,0,6.127,0.984,6.18,4.673
	c-1.195-0.209-2.857-0.366-4.359-0.366c-3.964,0-10.452,0.63-12.942,5.043l-0.105-0.004V0h-9.342v8.604L47.29,8.606
	C45.757,2.989,40.64,0,31.481,0H19.888l-0.027,9.69l-9.261-8.324C9.483,0.429,8.432,0.003,6.625,0.003c-0.026,0-3.642,0-3.669,0
	C1.314,0.003,0,1.389,0,3.098v5.709h9.099V6.235c0-0.854,1.019-1.301,1.659-0.662l13.058,11.683
	c0.591,0.592,0.691,1.249,0.049,1.906L10.756,30.963c-0.721,0.551-1.657,0.123-1.657-0.682V13.097H0v20.404
	c0,1.461,1.265,2.995,3.005,2.995c0,0,2.569,0,3.62,0c1.807,0,2.842-0.425,4.008-1.312l9.228-8.34v9.654h9.712V24.87h3.759
	c7.499,0,12.456-3.374,13.964-8.686l0.101,0.002v20.312h9.342v-3.765l0.104-0.001c1.682,2.946,5.24,4.287,9.1,4.389
	c4.724,0.129,7.272-2.196,8.255-2.82c0.311-0.195,0.444-0.228,0.464,0.039c0.06,0.755,0.139,1.572,0.158,2.158h8.566
	c-0.417-2.127-0.521-4.257-0.521-6.386v-10.07c0-0.571-0.039-1.107-0.098-1.622l0.101-0.041l7.421,18.742
	c0,0-1.239,4.176-5.111,4.176c-1.595,0-2.62-0.236-4.079-0.927c-0.227-0.1-0.458,0.017-0.536,0.256l-2.259,6.852
	c1.347,0.672,4.696,1.749,8.299,1.749c7.878,0,11.357-8.639,13.702-14.597l5.651-14.349l0.102,0.042
	c-0.123,0.835-0.189,1.71-0.189,2.624c0,8.933,6.799,14.174,15.729,14.174c2.7,0,5.718-0.484,7.98-1.357
	c0,0,1.897-5.618,2.293-6.806c0.136-0.408-0.264-0.618-0.523-0.474c-2.317,1.289-5.004,2.408-8.089,2.408
	c-4.568,0-7.424-1.458-7.943-5.19H133.4v10.796h9.343v-11.42c0-5.917,3.167-8.463,6.83-8.463c0.899,0,1.583,0.279,1.583,0.279
	l2.438-7.338c0.064-0.217-0.039-0.441-0.292-0.484c-0.842-0.13-1.808-0.244-2.735-0.244c-4.049,0-6.941,2.18-8.551,5.61h-0.105
	V9.452h-8.51v8.877l-0.105-0.003c-1.471-5.443-5.382-9.497-12.942-9.497c-5.131,0-9.388,1.938-11.931,5.474L108.328,14.263z
	 M32.082,17.979h-2.508V6.946h2.508c3.339,0,6.004,1.758,6.004,5.466C38.085,16.22,35.42,17.979,32.082,17.979z M68.38,30.893
	c-2.18,0-3.839-1.088-3.839-2.958c0-2.598,2.491-3.585,5.659-3.585c1.4,0,2.751,0.104,3.946,0.153
	C74.146,27.67,71.914,30.893,68.38,30.893z M115.211,20.404c0.206-3.114,1.819-5.655,5.19-5.655c3.741,0,5.19,2.541,5.19,5.655
	H115.211z"/>
</svg>
